<mxfile host="app.diagrams.net" agent="Mozilla/5.0 (Windows NT 10.0; Win64; x64) AppleWebKit/537.36 (KHTML, like Gecko) Chrome/133.0.0.0 Safari/537.36 Edg/133.0.0.0" version="26.0.12">
  <diagram name="Page-1" id="p0CUtmK5aFzijSbKzOh8">
    <mxGraphModel dx="2323" dy="816" grid="1" gridSize="10" guides="1" tooltips="1" connect="1" arrows="1" fold="1" page="1" pageScale="1" pageWidth="850" pageHeight="1100" math="0" shadow="0">
      <root>
        <mxCell id="0" />
        <mxCell id="1" parent="0" />
        <mxCell id="ei2JF0qVt9yil2GBEKcS-1" value="&lt;font style=&quot;color: rgb(0, 0, 0);&quot;&gt;Customer&lt;/font&gt;&lt;div&gt;&lt;br&gt;&lt;/div&gt;" style="shape=umlActor;verticalLabelPosition=bottom;verticalAlign=top;html=1;outlineConnect=0;fontFamily=Verdana;" parent="1" vertex="1">
          <mxGeometry x="-160" y="420" width="50" height="110" as="geometry" />
        </mxCell>
        <mxCell id="ei2JF0qVt9yil2GBEKcS-19" value="" style="endArrow=none;html=1;rounded=0;exitX=1;exitY=0.3333333333333333;exitDx=0;exitDy=0;exitPerimeter=0;entryX=0;entryY=0.5;entryDx=0;entryDy=0;" parent="1" source="ei2JF0qVt9yil2GBEKcS-1" target="ei2JF0qVt9yil2GBEKcS-3" edge="1">
          <mxGeometry width="50" height="50" relative="1" as="geometry">
            <mxPoint x="400" y="540" as="sourcePoint" />
            <mxPoint x="450" y="490" as="targetPoint" />
          </mxGeometry>
        </mxCell>
        <mxCell id="ei2JF0qVt9yil2GBEKcS-20" value="k" style="endArrow=none;html=1;rounded=0;exitX=1;exitY=0.3333333333333333;exitDx=0;exitDy=0;exitPerimeter=0;entryX=0;entryY=0.5;entryDx=0;entryDy=0;" parent="1" source="ei2JF0qVt9yil2GBEKcS-1" target="ei2JF0qVt9yil2GBEKcS-4" edge="1">
          <mxGeometry width="50" height="50" relative="1" as="geometry">
            <mxPoint x="400" y="540" as="sourcePoint" />
            <mxPoint x="450" y="490" as="targetPoint" />
          </mxGeometry>
        </mxCell>
        <mxCell id="ei2JF0qVt9yil2GBEKcS-22" value="" style="endArrow=none;html=1;rounded=0;exitX=1;exitY=0.3333333333333333;exitDx=0;exitDy=0;exitPerimeter=0;entryX=0;entryY=0.5;entryDx=0;entryDy=0;" parent="1" source="ei2JF0qVt9yil2GBEKcS-1" target="ei2JF0qVt9yil2GBEKcS-6" edge="1">
          <mxGeometry width="50" height="50" relative="1" as="geometry">
            <mxPoint x="400" y="540" as="sourcePoint" />
            <mxPoint x="450" y="490" as="targetPoint" />
          </mxGeometry>
        </mxCell>
        <mxCell id="ei2JF0qVt9yil2GBEKcS-23" value="" style="endArrow=none;html=1;rounded=0;exitX=1;exitY=0.3333333333333333;exitDx=0;exitDy=0;exitPerimeter=0;entryX=0;entryY=0.5;entryDx=0;entryDy=0;" parent="1" source="ei2JF0qVt9yil2GBEKcS-1" target="ei2JF0qVt9yil2GBEKcS-9" edge="1">
          <mxGeometry width="50" height="50" relative="1" as="geometry">
            <mxPoint x="400" y="540" as="sourcePoint" />
            <mxPoint x="450" y="490" as="targetPoint" />
          </mxGeometry>
        </mxCell>
        <mxCell id="ei2JF0qVt9yil2GBEKcS-24" value="" style="endArrow=none;html=1;rounded=0;entryX=-0.007;entryY=0.6;entryDx=0;entryDy=0;exitX=1;exitY=0.3333333333333333;exitDx=0;exitDy=0;exitPerimeter=0;entryPerimeter=0;" parent="1" source="ei2JF0qVt9yil2GBEKcS-1" target="ei2JF0qVt9yil2GBEKcS-11" edge="1">
          <mxGeometry width="50" height="50" relative="1" as="geometry">
            <mxPoint x="130" y="400" as="sourcePoint" />
            <mxPoint x="450" y="490" as="targetPoint" />
          </mxGeometry>
        </mxCell>
        <mxCell id="ei2JF0qVt9yil2GBEKcS-26" value="&lt;span style=&quot;background-color: light-dark(#ffffff, var(--ge-dark-color, #121212));&quot;&gt;&lt;font style=&quot;color: rgb(51, 51, 51);&quot;&gt;Delivery Boy&lt;/font&gt;&lt;/span&gt;&lt;div&gt;&lt;br&gt;&lt;/div&gt;" style="shape=umlActor;verticalLabelPosition=bottom;verticalAlign=top;html=1;outlineConnect=0;" parent="1" vertex="1">
          <mxGeometry x="910" y="810" width="80" height="150" as="geometry" />
        </mxCell>
        <mxCell id="ei2JF0qVt9yil2GBEKcS-27" value="" style="endArrow=none;html=1;rounded=0;exitX=1;exitY=0.5;exitDx=0;exitDy=0;entryX=0;entryY=0.3333333333333333;entryDx=0;entryDy=0;entryPerimeter=0;" parent="1" source="ei2JF0qVt9yil2GBEKcS-10" target="ei2JF0qVt9yil2GBEKcS-26" edge="1">
          <mxGeometry width="50" height="50" relative="1" as="geometry">
            <mxPoint x="400" y="540" as="sourcePoint" />
            <mxPoint x="450" y="490" as="targetPoint" />
          </mxGeometry>
        </mxCell>
        <mxCell id="ei2JF0qVt9yil2GBEKcS-28" value="Admin" style="shape=umlActor;verticalLabelPosition=bottom;verticalAlign=top;html=1;outlineConnect=0;" parent="1" vertex="1">
          <mxGeometry x="940" y="390" width="70" height="140" as="geometry" />
        </mxCell>
        <mxCell id="ei2JF0qVt9yil2GBEKcS-29" value="" style="endArrow=none;html=1;rounded=0;entryX=0;entryY=0.3333333333333333;entryDx=0;entryDy=0;entryPerimeter=0;exitX=1.025;exitY=0.425;exitDx=0;exitDy=0;exitPerimeter=0;" parent="1" source="ei2JF0qVt9yil2GBEKcS-6" target="ei2JF0qVt9yil2GBEKcS-28" edge="1">
          <mxGeometry width="50" height="50" relative="1" as="geometry">
            <mxPoint x="400" y="540" as="sourcePoint" />
            <mxPoint x="450" y="490" as="targetPoint" />
          </mxGeometry>
        </mxCell>
        <mxCell id="ei2JF0qVt9yil2GBEKcS-30" value="" style="endArrow=none;html=1;rounded=0;exitX=1;exitY=0.5;exitDx=0;exitDy=0;entryX=0;entryY=0.3333333333333333;entryDx=0;entryDy=0;entryPerimeter=0;" parent="1" source="ei2JF0qVt9yil2GBEKcS-9" target="ei2JF0qVt9yil2GBEKcS-28" edge="1">
          <mxGeometry width="50" height="50" relative="1" as="geometry">
            <mxPoint x="400" y="540" as="sourcePoint" />
            <mxPoint x="450" y="490" as="targetPoint" />
            <Array as="points">
              <mxPoint x="570" y="520" />
            </Array>
          </mxGeometry>
        </mxCell>
        <mxCell id="ei2JF0qVt9yil2GBEKcS-31" value="" style="endArrow=none;html=1;rounded=0;entryX=0;entryY=0.3333333333333333;entryDx=0;entryDy=0;entryPerimeter=0;exitX=1;exitY=0.5;exitDx=0;exitDy=0;" parent="1" source="ei2JF0qVt9yil2GBEKcS-10" target="ei2JF0qVt9yil2GBEKcS-28" edge="1">
          <mxGeometry width="50" height="50" relative="1" as="geometry">
            <mxPoint x="400" y="540" as="sourcePoint" />
            <mxPoint x="450" y="490" as="targetPoint" />
            <Array as="points" />
          </mxGeometry>
        </mxCell>
        <mxCell id="ei2JF0qVt9yil2GBEKcS-35" value="" style="endArrow=none;html=1;rounded=0;exitX=1;exitY=0.5;exitDx=0;exitDy=0;entryX=0;entryY=0.3333333333333333;entryDx=0;entryDy=0;entryPerimeter=0;" parent="1" source="ei2JF0qVt9yil2GBEKcS-3" target="ei2JF0qVt9yil2GBEKcS-28" edge="1">
          <mxGeometry width="50" height="50" relative="1" as="geometry">
            <mxPoint x="400" y="540" as="sourcePoint" />
            <mxPoint x="710" y="590" as="targetPoint" />
            <Array as="points" />
          </mxGeometry>
        </mxCell>
        <mxCell id="ei2JF0qVt9yil2GBEKcS-54" value="" style="swimlane;startSize=0;" parent="1" vertex="1">
          <mxGeometry x="-60" y="140" width="920" height="970" as="geometry" />
        </mxCell>
        <mxCell id="ei2JF0qVt9yil2GBEKcS-51" value="Bank Gateway" style="ellipse;whiteSpace=wrap;html=1;" parent="ei2JF0qVt9yil2GBEKcS-54" vertex="1">
          <mxGeometry x="630" y="580" width="110" height="80" as="geometry" />
        </mxCell>
        <mxCell id="TcVtuWjsfBd4rpDje0Aw-1" value="filter" style="ellipse;whiteSpace=wrap;html=1;" parent="ei2JF0qVt9yil2GBEKcS-54" vertex="1">
          <mxGeometry x="520" y="120" width="50" height="50" as="geometry" />
        </mxCell>
        <mxCell id="TcVtuWjsfBd4rpDje0Aw-4" value="veg/nonveg" style="ellipse;whiteSpace=wrap;html=1;" parent="ei2JF0qVt9yil2GBEKcS-54" vertex="1">
          <mxGeometry x="670" y="210" width="70" height="40" as="geometry" />
        </mxCell>
        <mxCell id="TcVtuWjsfBd4rpDje0Aw-5" value="" style="endArrow=none;dashed=1;html=1;dashPattern=1 3;strokeWidth=2;rounded=0;entryX=0.5;entryY=0;entryDx=0;entryDy=0;exitX=0.64;exitY=1.04;exitDx=0;exitDy=0;exitPerimeter=0;" parent="ei2JF0qVt9yil2GBEKcS-54" source="TcVtuWjsfBd4rpDje0Aw-1" target="TcVtuWjsfBd4rpDje0Aw-4" edge="1">
          <mxGeometry width="50" height="50" relative="1" as="geometry">
            <mxPoint x="340" y="360" as="sourcePoint" />
            <mxPoint x="390" y="310" as="targetPoint" />
          </mxGeometry>
        </mxCell>
        <mxCell id="TcVtuWjsfBd4rpDje0Aw-6" value="&amp;lt;&amp;lt;extend&amp;gt;&amp;gt;" style="edgeLabel;html=1;align=center;verticalAlign=middle;resizable=0;points=[];" parent="TcVtuWjsfBd4rpDje0Aw-5" vertex="1" connectable="0">
          <mxGeometry x="-0.1223" y="3" relative="1" as="geometry">
            <mxPoint as="offset" />
          </mxGeometry>
        </mxCell>
        <mxCell id="TcVtuWjsfBd4rpDje0Aw-7" value="Apply Coupons" style="ellipse;whiteSpace=wrap;html=1;" parent="ei2JF0qVt9yil2GBEKcS-54" vertex="1">
          <mxGeometry x="560" y="480" width="70" height="40" as="geometry" />
        </mxCell>
        <mxCell id="TcVtuWjsfBd4rpDje0Aw-10" value="update/remove an item" style="ellipse;whiteSpace=wrap;html=1;" parent="ei2JF0qVt9yil2GBEKcS-54" vertex="1">
          <mxGeometry x="730" y="270" width="80" height="60" as="geometry" />
        </mxCell>
        <mxCell id="vGABDnk8EECmOCPEv9nt-1" value="select beverages" style="ellipse;whiteSpace=wrap;html=1;" vertex="1" parent="ei2JF0qVt9yil2GBEKcS-54">
          <mxGeometry x="270" y="190" width="130" height="50" as="geometry" />
        </mxCell>
        <mxCell id="vGABDnk8EECmOCPEv9nt-2" value="Select Snacks" style="ellipse;whiteSpace=wrap;html=1;" vertex="1" parent="ei2JF0qVt9yil2GBEKcS-54">
          <mxGeometry x="270" y="250" width="130" height="50" as="geometry" />
        </mxCell>
        <mxCell id="vGABDnk8EECmOCPEv9nt-3" value="Select Sweets" style="ellipse;whiteSpace=wrap;html=1;" vertex="1" parent="ei2JF0qVt9yil2GBEKcS-54">
          <mxGeometry x="270" y="310" width="130" height="60" as="geometry" />
        </mxCell>
        <mxCell id="ei2JF0qVt9yil2GBEKcS-5" value="Select an Item" style="ellipse;whiteSpace=wrap;html=1;" parent="ei2JF0qVt9yil2GBEKcS-54" vertex="1">
          <mxGeometry x="485" y="220" width="140" height="80" as="geometry" />
        </mxCell>
        <mxCell id="TcVtuWjsfBd4rpDje0Aw-11" value="" style="endArrow=none;dashed=1;html=1;dashPattern=1 3;strokeWidth=2;rounded=0;exitX=1;exitY=0.5;exitDx=0;exitDy=0;entryX=0;entryY=0.5;entryDx=0;entryDy=0;" parent="ei2JF0qVt9yil2GBEKcS-54" source="ei2JF0qVt9yil2GBEKcS-5" target="TcVtuWjsfBd4rpDje0Aw-10" edge="1">
          <mxGeometry width="50" height="50" relative="1" as="geometry">
            <mxPoint x="350" y="360" as="sourcePoint" />
            <mxPoint x="400" y="310" as="targetPoint" />
          </mxGeometry>
        </mxCell>
        <mxCell id="TcVtuWjsfBd4rpDje0Aw-12" value="&amp;lt;&amp;lt;extend&amp;gt;&amp;gt;" style="edgeLabel;html=1;align=center;verticalAlign=middle;resizable=0;points=[];" parent="TcVtuWjsfBd4rpDje0Aw-11" vertex="1" connectable="0">
          <mxGeometry x="-0.1667" y="2" relative="1" as="geometry">
            <mxPoint as="offset" />
          </mxGeometry>
        </mxCell>
        <mxCell id="vGABDnk8EECmOCPEv9nt-10" value="" style="endArrow=none;dashed=1;html=1;rounded=0;entryX=0.995;entryY=0.351;entryDx=0;entryDy=0;entryPerimeter=0;exitX=0.08;exitY=0.276;exitDx=0;exitDy=0;exitPerimeter=0;" edge="1" parent="ei2JF0qVt9yil2GBEKcS-54" source="ei2JF0qVt9yil2GBEKcS-5" target="vGABDnk8EECmOCPEv9nt-1">
          <mxGeometry width="50" height="50" relative="1" as="geometry">
            <mxPoint x="260" y="380" as="sourcePoint" />
            <mxPoint x="310" y="330" as="targetPoint" />
          </mxGeometry>
        </mxCell>
        <mxCell id="vGABDnk8EECmOCPEv9nt-16" value="&amp;lt;&amp;lt;include&amp;gt;&amp;gt;" style="edgeLabel;html=1;align=center;verticalAlign=middle;resizable=0;points=[];" vertex="1" connectable="0" parent="vGABDnk8EECmOCPEv9nt-10">
          <mxGeometry x="0.4085" y="-3" relative="1" as="geometry">
            <mxPoint y="1" as="offset" />
          </mxGeometry>
        </mxCell>
        <mxCell id="vGABDnk8EECmOCPEv9nt-11" value="" style="endArrow=none;dashed=1;html=1;dashPattern=1 3;strokeWidth=2;rounded=0;entryX=1;entryY=0.5;entryDx=0;entryDy=0;exitX=0.041;exitY=0.628;exitDx=0;exitDy=0;exitPerimeter=0;" edge="1" parent="ei2JF0qVt9yil2GBEKcS-54" source="ei2JF0qVt9yil2GBEKcS-5" target="vGABDnk8EECmOCPEv9nt-2">
          <mxGeometry width="50" height="50" relative="1" as="geometry">
            <mxPoint x="260" y="380" as="sourcePoint" />
            <mxPoint x="310" y="330" as="targetPoint" />
          </mxGeometry>
        </mxCell>
        <mxCell id="vGABDnk8EECmOCPEv9nt-17" value="&amp;lt;&amp;lt;include&amp;gt;&amp;gt;" style="edgeLabel;html=1;align=center;verticalAlign=middle;resizable=0;points=[];" vertex="1" connectable="0" parent="vGABDnk8EECmOCPEv9nt-11">
          <mxGeometry x="0.2092" y="1" relative="1" as="geometry">
            <mxPoint as="offset" />
          </mxGeometry>
        </mxCell>
        <mxCell id="vGABDnk8EECmOCPEv9nt-12" value="" style="endArrow=none;dashed=1;html=1;dashPattern=1 3;strokeWidth=2;rounded=0;entryX=1;entryY=0.5;entryDx=0;entryDy=0;exitX=0;exitY=1;exitDx=0;exitDy=0;" edge="1" parent="ei2JF0qVt9yil2GBEKcS-54" source="ei2JF0qVt9yil2GBEKcS-5" target="vGABDnk8EECmOCPEv9nt-3">
          <mxGeometry width="50" height="50" relative="1" as="geometry">
            <mxPoint x="260" y="380" as="sourcePoint" />
            <mxPoint x="310" y="330" as="targetPoint" />
          </mxGeometry>
        </mxCell>
        <mxCell id="vGABDnk8EECmOCPEv9nt-19" value="&amp;lt;&amp;lt;include&amp;gt;&amp;gt;" style="edgeLabel;html=1;align=center;verticalAlign=middle;resizable=0;points=[];" vertex="1" connectable="0" parent="vGABDnk8EECmOCPEv9nt-12">
          <mxGeometry x="-0.0519" relative="1" as="geometry">
            <mxPoint as="offset" />
          </mxGeometry>
        </mxCell>
        <mxCell id="ei2JF0qVt9yil2GBEKcS-11" value="Logout" style="ellipse;whiteSpace=wrap;html=1;" parent="ei2JF0qVt9yil2GBEKcS-54" vertex="1">
          <mxGeometry x="285" y="870" width="140" height="80" as="geometry" />
        </mxCell>
        <mxCell id="ei2JF0qVt9yil2GBEKcS-10" value="Deliver Order" style="ellipse;whiteSpace=wrap;html=1;" parent="ei2JF0qVt9yil2GBEKcS-54" vertex="1">
          <mxGeometry x="275" y="680" width="140" height="80" as="geometry" />
        </mxCell>
        <mxCell id="ei2JF0qVt9yil2GBEKcS-40" value="Payment" style="ellipse;whiteSpace=wrap;html=1;" parent="ei2JF0qVt9yil2GBEKcS-54" vertex="1">
          <mxGeometry x="270" y="580" width="140" height="80" as="geometry" />
        </mxCell>
        <mxCell id="ei2JF0qVt9yil2GBEKcS-52" value="" style="endArrow=none;dashed=1;html=1;rounded=0;entryX=0;entryY=0.5;entryDx=0;entryDy=0;exitX=1;exitY=0.5;exitDx=0;exitDy=0;startArrow=classic;startFill=1;" parent="ei2JF0qVt9yil2GBEKcS-54" source="ei2JF0qVt9yil2GBEKcS-40" target="ei2JF0qVt9yil2GBEKcS-51" edge="1">
          <mxGeometry width="50" height="50" relative="1" as="geometry">
            <mxPoint x="330" y="510" as="sourcePoint" />
            <mxPoint x="380" y="460" as="targetPoint" />
          </mxGeometry>
        </mxCell>
        <mxCell id="ei2JF0qVt9yil2GBEKcS-53" value="&amp;lt;&amp;lt;Extend&amp;gt;&amp;gt;" style="edgeLabel;html=1;align=center;verticalAlign=middle;resizable=0;points=[];" parent="ei2JF0qVt9yil2GBEKcS-52" vertex="1" connectable="0">
          <mxGeometry x="0.2427" y="-1" relative="1" as="geometry">
            <mxPoint as="offset" />
          </mxGeometry>
        </mxCell>
        <mxCell id="ei2JF0qVt9yil2GBEKcS-6" value="Total Bill" style="ellipse;whiteSpace=wrap;html=1;" parent="ei2JF0qVt9yil2GBEKcS-54" vertex="1">
          <mxGeometry x="270" y="470" width="140" height="80" as="geometry" />
        </mxCell>
        <mxCell id="TcVtuWjsfBd4rpDje0Aw-8" value="" style="endArrow=none;dashed=1;html=1;dashPattern=1 3;strokeWidth=2;rounded=0;entryX=0;entryY=0.5;entryDx=0;entryDy=0;exitX=0.982;exitY=0.425;exitDx=0;exitDy=0;exitPerimeter=0;" parent="ei2JF0qVt9yil2GBEKcS-54" source="ei2JF0qVt9yil2GBEKcS-6" target="TcVtuWjsfBd4rpDje0Aw-7" edge="1">
          <mxGeometry width="50" height="50" relative="1" as="geometry">
            <mxPoint x="400" y="330" as="sourcePoint" />
            <mxPoint x="450" y="280" as="targetPoint" />
          </mxGeometry>
        </mxCell>
        <mxCell id="TcVtuWjsfBd4rpDje0Aw-9" value="&amp;lt;&amp;lt;extend&amp;gt;&amp;gt;" style="edgeLabel;html=1;align=center;verticalAlign=middle;resizable=0;points=[];" parent="TcVtuWjsfBd4rpDje0Aw-8" vertex="1" connectable="0">
          <mxGeometry x="-0.3375" y="-2" relative="1" as="geometry">
            <mxPoint as="offset" />
          </mxGeometry>
        </mxCell>
        <mxCell id="ei2JF0qVt9yil2GBEKcS-9" value="Confirm Order" style="ellipse;whiteSpace=wrap;html=1;" parent="ei2JF0qVt9yil2GBEKcS-54" vertex="1">
          <mxGeometry x="270" y="380" width="140" height="80" as="geometry" />
        </mxCell>
        <mxCell id="ei2JF0qVt9yil2GBEKcS-3" value="Login" style="ellipse;whiteSpace=wrap;html=1;" parent="ei2JF0qVt9yil2GBEKcS-54" vertex="1">
          <mxGeometry x="265" width="140" height="80" as="geometry" />
        </mxCell>
        <mxCell id="ei2JF0qVt9yil2GBEKcS-4" value="View Menu" style="ellipse;whiteSpace=wrap;html=1;" parent="ei2JF0qVt9yil2GBEKcS-54" vertex="1">
          <mxGeometry x="265" y="100" width="140" height="80" as="geometry" />
        </mxCell>
        <mxCell id="TcVtuWjsfBd4rpDje0Aw-2" value="" style="endArrow=none;dashed=1;html=1;rounded=0;entryX=-0.025;entryY=0.588;entryDx=0;entryDy=0;entryPerimeter=0;exitX=1;exitY=0.5;exitDx=0;exitDy=0;" parent="ei2JF0qVt9yil2GBEKcS-54" source="ei2JF0qVt9yil2GBEKcS-4" target="TcVtuWjsfBd4rpDje0Aw-1" edge="1">
          <mxGeometry width="50" height="50" relative="1" as="geometry">
            <mxPoint x="400" y="330" as="sourcePoint" />
            <mxPoint x="450" y="280" as="targetPoint" />
          </mxGeometry>
        </mxCell>
        <mxCell id="TcVtuWjsfBd4rpDje0Aw-3" value="&amp;lt;&amp;lt;extend&amp;gt;&amp;gt;" style="edgeLabel;html=1;align=center;verticalAlign=middle;resizable=0;points=[];" parent="TcVtuWjsfBd4rpDje0Aw-2" vertex="1" connectable="0">
          <mxGeometry x="-0.1961" y="1" relative="1" as="geometry">
            <mxPoint as="offset" />
          </mxGeometry>
        </mxCell>
        <mxCell id="vGABDnk8EECmOCPEv9nt-21" value="Delivery Boy Info" style="ellipse;whiteSpace=wrap;html=1;" vertex="1" parent="ei2JF0qVt9yil2GBEKcS-54">
          <mxGeometry x="285" y="770" width="125" height="80" as="geometry" />
        </mxCell>
        <mxCell id="vGABDnk8EECmOCPEv9nt-13" value="" style="endArrow=none;html=1;rounded=0;entryX=0;entryY=0.5;entryDx=0;entryDy=0;exitX=1;exitY=0.3333333333333333;exitDx=0;exitDy=0;exitPerimeter=0;" edge="1" parent="1" source="ei2JF0qVt9yil2GBEKcS-1" target="vGABDnk8EECmOCPEv9nt-1">
          <mxGeometry width="50" height="50" relative="1" as="geometry">
            <mxPoint x="330" y="510" as="sourcePoint" />
            <mxPoint x="380" y="460" as="targetPoint" />
          </mxGeometry>
        </mxCell>
        <mxCell id="vGABDnk8EECmOCPEv9nt-14" value="" style="endArrow=none;html=1;rounded=0;entryX=0;entryY=0.5;entryDx=0;entryDy=0;exitX=1;exitY=0.3333333333333333;exitDx=0;exitDy=0;exitPerimeter=0;" edge="1" parent="1" source="ei2JF0qVt9yil2GBEKcS-1" target="vGABDnk8EECmOCPEv9nt-2">
          <mxGeometry width="50" height="50" relative="1" as="geometry">
            <mxPoint x="330" y="510" as="sourcePoint" />
            <mxPoint x="380" y="460" as="targetPoint" />
          </mxGeometry>
        </mxCell>
        <mxCell id="vGABDnk8EECmOCPEv9nt-15" value="" style="endArrow=none;html=1;rounded=0;entryX=1;entryY=0.3333333333333333;entryDx=0;entryDy=0;entryPerimeter=0;exitX=0;exitY=0.5;exitDx=0;exitDy=0;" edge="1" parent="1" source="vGABDnk8EECmOCPEv9nt-3" target="ei2JF0qVt9yil2GBEKcS-1">
          <mxGeometry width="50" height="50" relative="1" as="geometry">
            <mxPoint x="330" y="510" as="sourcePoint" />
            <mxPoint x="380" y="460" as="targetPoint" />
          </mxGeometry>
        </mxCell>
        <mxCell id="ei2JF0qVt9yil2GBEKcS-48" value="" style="endArrow=none;html=1;rounded=0;exitX=0;exitY=0.5;exitDx=0;exitDy=0;entryX=1;entryY=0.3333333333333333;entryDx=0;entryDy=0;entryPerimeter=0;" parent="1" source="ei2JF0qVt9yil2GBEKcS-40" target="ei2JF0qVt9yil2GBEKcS-1" edge="1">
          <mxGeometry width="50" height="50" relative="1" as="geometry">
            <mxPoint x="360" y="750" as="sourcePoint" />
            <mxPoint x="-100" y="460" as="targetPoint" />
          </mxGeometry>
        </mxCell>
        <mxCell id="vGABDnk8EECmOCPEv9nt-22" value="" style="endArrow=none;html=1;rounded=0;entryX=1;entryY=0.5;entryDx=0;entryDy=0;exitX=0;exitY=0.3333333333333333;exitDx=0;exitDy=0;exitPerimeter=0;" edge="1" parent="1" source="ei2JF0qVt9yil2GBEKcS-26" target="vGABDnk8EECmOCPEv9nt-21">
          <mxGeometry width="50" height="50" relative="1" as="geometry">
            <mxPoint x="300" y="1040" as="sourcePoint" />
            <mxPoint x="350" y="990" as="targetPoint" />
          </mxGeometry>
        </mxCell>
        <mxCell id="vGABDnk8EECmOCPEv9nt-23" value="" style="endArrow=none;html=1;rounded=0;entryX=1;entryY=0.3333333333333333;entryDx=0;entryDy=0;entryPerimeter=0;exitX=0;exitY=0.5;exitDx=0;exitDy=0;" edge="1" parent="1" source="vGABDnk8EECmOCPEv9nt-21" target="ei2JF0qVt9yil2GBEKcS-1">
          <mxGeometry width="50" height="50" relative="1" as="geometry">
            <mxPoint x="300" y="1040" as="sourcePoint" />
            <mxPoint x="350" y="990" as="targetPoint" />
          </mxGeometry>
        </mxCell>
      </root>
    </mxGraphModel>
  </diagram>
</mxfile>
